<svg width="45" height="45" viewBox="0 0 45 45" fill="none" xmlns="http://www.w3.org/2000/svg">
<path d="M39.0384 2.8125H6.17695C4.38135 2.8125 2.8125 4.10449 2.8125 5.879V38.8134C2.8125 40.5976 4.38135 42.1875 6.17695 42.1875H39.0287C40.834 42.1875 42.1875 40.587 42.1875 38.8134V5.879C42.198 4.10449 40.834 2.8125 39.0384 2.8125ZM15.0179 35.6335H9.37705V18.0949H15.0179V35.6335ZM12.3926 15.4283H12.3521C10.5469 15.4283 9.37793 14.0845 9.37793 12.4022C9.37793 10.6893 10.5776 9.37705 12.4233 9.37705C14.269 9.37705 15.3984 10.6796 15.4389 12.4022C15.438 14.0845 14.269 15.4283 12.3926 15.4283ZM35.6335 35.6335H29.9927V26.0438C29.9927 23.7463 29.1718 22.1766 27.131 22.1766C25.5718 22.1766 24.6489 23.2313 24.2385 24.2587C24.0847 24.6278 24.0434 25.1306 24.0434 25.6438V35.6335H18.4025V18.0949H24.0434V20.5356C24.8643 19.3667 26.1466 17.6845 29.1305 17.6845C32.8333 17.6845 35.6344 20.1252 35.6344 25.3872L35.6335 35.6335Z" fill="#202426"/>
</svg>
