<svg width="45" height="45" viewBox="0 0 45 45" fill="none" xmlns="http://www.w3.org/2000/svg">
<g filter="url(#filter0_i)">
<path d="M22.5 2.8125C11.6279 2.8125 2.8125 11.8564 2.8125 23.001C2.8125 31.9219 8.45508 39.4805 16.2773 42.1523C16.3871 42.1762 16.4991 42.188 16.6113 42.1875C17.3408 42.1875 17.6221 41.6514 17.6221 41.1855C17.6221 40.7021 17.6045 39.4365 17.5957 37.749C16.9445 37.9017 16.2782 37.9813 15.6094 37.9863C11.8213 37.9863 10.96 35.042 10.96 35.042C10.0635 32.7129 8.77148 32.0889 8.77148 32.0889C7.05762 30.8848 8.76269 30.8496 8.89453 30.8496H8.90332C10.8809 31.0254 11.918 32.9414 11.918 32.9414C12.9023 34.6641 14.2207 35.1475 15.3984 35.1475C16.1772 35.1319 16.9439 34.9522 17.6484 34.6201C17.8242 33.3193 18.334 32.4316 18.8965 31.9219C14.5283 31.4121 9.93164 29.6807 9.93164 21.9463C9.93164 19.7402 10.6963 17.9385 11.9531 16.5322C11.751 16.0225 11.0742 13.9658 12.1465 11.1885C12.2903 11.1541 12.4381 11.1393 12.5859 11.1445C13.2979 11.1445 14.9062 11.417 17.5605 13.2627C20.7857 12.3603 24.1967 12.3603 27.4219 13.2627C30.0762 11.417 31.6846 11.1445 32.3965 11.1445C32.5443 11.1393 32.6921 11.1541 32.8359 11.1885C33.9082 13.9658 33.2314 16.0225 33.0293 16.5322C34.2861 17.9473 35.0508 19.749 35.0508 21.9463C35.0508 29.6982 30.4453 31.4033 26.0596 31.9043C26.7627 32.5283 27.3955 33.7588 27.3955 35.6396C27.3955 38.3379 27.3691 40.5176 27.3691 41.1768C27.3691 41.6514 27.6416 42.1875 28.3711 42.1875C28.4892 42.188 28.607 42.1762 28.7227 42.1523C36.5537 39.4805 42.1875 31.9131 42.1875 23.001C42.1875 11.8564 33.3721 2.8125 22.5 2.8125Z" fill="#202426"/>
</g>
<defs>
<filter id="filter0_i" x="0" y="0" width="45" height="45" filterUnits="userSpaceOnUse" color-interpolation-filters="sRGB">
<feFlood flood-opacity="0" result="BackgroundImageFix"/>
<feBlend mode="normal" in="SourceGraphic" in2="BackgroundImageFix" result="shape"/>
<feColorMatrix in="SourceAlpha" type="matrix" values="0 0 0 0 0 0 0 0 0 0 0 0 0 0 0 0 0 0 127 0" result="hardAlpha"/>
<feOffset/>
<feGaussianBlur stdDeviation="1"/>
<feComposite in2="hardAlpha" operator="arithmetic" k2="-1" k3="1"/>
<feColorMatrix type="matrix" values="0 0 0 0 0 0 0 0 0 0 0 0 0 0 0 0 0 0 0.25 0"/>
<feBlend mode="normal" in2="shape" result="effect1_innerShadow"/>
</filter>
</defs>
</svg>
