<svg width="45" height="45" viewBox="0 0 45 45" fill="none" xmlns="http://www.w3.org/2000/svg">
<path d="M37.2656 7.03125H7.73438C6.42944 7.03265 5.17835 7.55165 4.25563 8.47438C3.3329 9.3971 2.8139 10.6482 2.8125 11.9531V33.0469C2.8139 34.3518 3.3329 35.6029 4.25563 36.5256C5.17835 37.4484 6.42944 37.9674 7.73438 37.9688H37.2656C38.5706 37.9674 39.8216 37.4484 40.7444 36.5256C41.6671 35.6029 42.1861 34.3518 42.1875 33.0469V11.9531C42.1861 10.6482 41.6671 9.3971 40.7444 8.47438C39.8216 7.55165 38.5706 7.03265 37.2656 7.03125ZM36.0193 15.1726L23.3631 25.0163C23.1163 25.2082 22.8126 25.3123 22.5 25.3123C22.1874 25.3123 21.8837 25.2082 21.6369 25.0163L8.98066 15.1726C8.83196 15.0603 8.70707 14.9195 8.61322 14.7586C8.51938 14.5976 8.45847 14.4195 8.43403 14.2348C8.40958 14.0501 8.4221 13.8624 8.47084 13.6825C8.51958 13.5027 8.60358 13.3343 8.71796 13.1872C8.83233 13.0401 8.9748 12.9172 9.13709 12.8256C9.29938 12.734 9.47824 12.6756 9.6633 12.6538C9.84835 12.632 10.0359 12.6471 10.215 12.6984C10.3942 12.7496 10.5614 12.836 10.7068 12.9524L22.5 22.1247L34.2932 12.9524C34.5881 12.7297 34.9588 12.6321 35.3251 12.6805C35.6914 12.729 36.024 12.9197 36.2508 13.2115C36.4776 13.5032 36.5805 13.8725 36.5372 14.2395C36.4939 14.6065 36.3078 14.9417 36.0193 15.1726Z" fill="#202426"/>
</svg>
