<svg width="358" height="190" viewBox="0 0 358 190" fill="none" xmlns="http://www.w3.org/2000/svg">
<path d="M81.5378 89.194C79.6111 105.326 76.9974 121.331 75.0702 137.469C74.6734 140.791 74.9536 150.444 73.5725 147.396C67.3561 133.676 56.7334 123.059 45.0442 113.788C34.732 105.609 23.7063 98.4979 11.7992 92.8833C10.8215 92.4223 7.46743 91.5403 7.70761 89.8975C8.18978 86.5995 12.3188 84.6565 15.0022 83.7062C23.3304 80.7566 32.8039 80.3679 41.5229 79.889C62.476 78.7379 83.5197 79.4155 104.493 79.2932C133.713 79.1228 162.332 77.7167 190.597 69.9105" stroke="#202426" stroke-linecap="round" stroke-linejoin="round"/>
<path d="M69.0636 128.463C76.9651 122.007 86.1587 117.29 94.497 111.4C96.5798 109.928 99.41 108.322 100.886 106.154C102.221 104.191 96.0954 105.949 95.8513 106.036C86.2282 109.463 82.8531 120.161 93.9783 124.254C102.049 127.224 107.5 117.662 113.211 113.496C114.43 112.607 117.502 109.672 117.06 111.114C116.218 113.864 113.935 116.661 112.307 118.984C111.983 119.446 110.179 121.714 110.341 121.522C112.712 118.715 115.93 116.42 118.875 114.259C119.749 113.618 127.191 108.029 127.251 112.139C127.299 115.388 129.169 118.556 132.768 116.894C135.661 115.557 136.903 114.039 140.076 115.207C141.873 115.868 143.104 115.75 144.919 115.172C148.147 114.143 151.487 112.867 154.747 111.687C156.283 111.131 157.817 112.074 159.278 112.611C161.911 113.58 163.38 113.267 166.182 112.922C175.964 111.718 180.535 98.1486 183.307 90.6137C183.704 89.534 189.171 75.5815 186.923 76.2979C183.676 77.3324 181.43 84.7419 179.856 87.3901C177.16 91.928 174.968 104.702 176.147 110.074C177.313 115.389 180.095 106.188 183.285 101.67C183.964 100.707 186.584 95.4111 188.324 96.0514C189.121 96.3444 188.873 101.542 189.472 102.583C192.238 107.401 195.388 105.177 199.211 103.938C201.048 103.343 203.139 103.336 204.89 102.642C210.182 100.544 212.164 103.96 217.307 104.238C220.628 104.418 225.037 102.79 226.757 99.8711C230.41 93.6716 244.78 79.7849 237.351 81.0633" stroke="#202426" stroke-linecap="round" stroke-linejoin="round"/>
<path d="M236.395 81.1577C231.924 86.7516 227.07 93.7181 228.966 101.348C229.284 102.628 231.411 103.39 232.592 103.036C234.828 102.366 236.859 100.159 238.486 98.5594C239.733 97.3328 240.736 95.5958 241.784 94.1895C241.948 93.97 242.126 93.0704 242.381 92.9937C242.499 92.9585 241.625 96.8563 241.54 97.2058C241.243 98.4157 240.326 103.13 243.039 101.572C244.641 100.652 246.341 99.8067 247.642 98.4679C248.398 97.6888 249.805 94.7251 249.43 95.7444C248.46 98.3806 250.728 100.84 253.675 100.078C259.538 98.5623 262.286 93.1733 263.886 87.7138C264.867 84.3649 266.173 81.0093 268.432 78.298C268.717 77.9554 271.701 74.1866 271.414 75.8564C270.597 80.6019 267.997 85.626 265.73 89.8079C263.736 93.4865 261.826 97.3699 259.701 100.959C258.237 103.43 260.451 99.0843 260.785 98.546C262.455 95.8557 263.424 92.2247 265.564 89.8846C266.269 89.114 268.101 91.7394 268.718 92.1066C272.384 94.2882 277.092 94.9504 281.261 94.8339" stroke="#202426" stroke-linecap="round" stroke-linejoin="round"/>
<path d="M122.587 105.616C126.798 104.144 130.721 103.425 135.128 102.933" stroke="#202426" stroke-linecap="round" stroke-linejoin="round"/>
<path d="M260.317 135.603C268.882 126.155 284.097 91.1632 290.437 80.1205C295.206 71.8135 300.389 63.7635 305.119 55.4293C308.09 50.194 311.207 45.2081 315.216 40.704C316.41 39.3621 317.629 38.0417 318.836 36.7108C319.059 36.4653 316.206 40.5156 315.86 41.0315C310.869 48.4746 306.463 56.229 302.499 64.2665C298.299 72.784 293.714 81.4802 290.95 90.5999C288.471 98.7794 286.522 110.63 298.977 108.747C307.617 107.44 316.028 102.335 323.262 97.7256C329.809 93.5542 337.433 88.2545 341.636 81.5173C343.868 77.9409 341.872 75.1537 338.082 74.0151C326.595 70.565 311.96 75.6476 300.851 78.2635C276.027 84.1087 274.421 88.6045 248.803 84.4142" stroke="#202426" stroke-linecap="round" stroke-linejoin="round"/>
</svg>
