<svg width="45" height="45" viewBox="0 0 45 45" fill="none" xmlns="http://www.w3.org/2000/svg">
<path d="M30.7937 19.5238C28.5715 19.5238 27.8572 21.6667 27.6984 22.9365V23.0159L27.381 24.2063C28.3334 25 29.5238 25.5555 30.7143 25.5555C32.3016 25.5555 33.7302 24.2063 33.8096 22.4603C33.8096 20.873 32.4603 19.5238 30.7937 19.5238Z" fill="#1D3557"/>
<path d="M22.9366 2.93652C12.0636 2.93652 3.25403 11.746 3.25403 22.6191C3.25403 33.4921 12.0636 42.3016 22.9366 42.3016C33.8096 42.3016 42.6191 33.4921 42.6191 22.6191C42.6191 11.746 33.8096 2.93652 22.9366 2.93652ZM30.7937 28.6508C29.2064 28.6508 27.8572 28.1746 26.6667 27.4603L25.3175 33.8095H22.2223L24.127 25.0794C23.3334 23.9683 22.5397 22.6984 21.9842 21.508V22.8572C21.9842 26.1111 19.3651 28.7302 16.1905 28.7302C13.0159 28.7302 10.3969 26.1111 10.3969 22.8572V14.9207H13.4128V22.8572C13.4128 24.4445 14.6826 25.7143 16.2699 25.7143C17.8572 25.7143 19.127 24.4445 19.127 22.8572V14.9207H22.1429C22.7778 16.9048 23.8096 19.2857 25.1588 21.4286C25.9524 18.4127 28.1747 16.5873 30.9524 16.5873C34.2064 16.5873 36.9048 19.2857 36.9048 22.5397C36.7461 25.9524 34.0477 28.6508 30.7937 28.6508Z" fill="#1D3557"/>
</svg>
